<svg width="2000" height="2000" viewBox="0 0 2000 2000" fill="none" xmlns="http://www.w3.org/2000/svg">
<g clip-path="url(#clip0_11:3534)">
<rect width="1152" height="700" fill="white"/>
<g filter="url(#filter0_d_11:3534)">
<g clip-path="url(#clip1_11:3534)">
<rect y="-91" width="1151.62" height="818.933" rx="15.9948" fill="#00060C"/>
<path d="M511.667 482.3C421.185 446.873 376.553 344.804 411.979 254.322" stroke="#D223EF" stroke-width="3.9987" stroke-linecap="round"/>
<path d="M1130.65 535.616C1010.7 841.97 665.12 993.083 358.766 873.138" stroke="#D223EF" stroke-width="3.9987" stroke-linecap="round"/>
<path d="M802.807 479.427C891.797 354.066 862.312 180.3 736.951 91.3095C611.589 2.31939 437.823 31.8042 348.833 157.166" stroke="#280941" stroke-width="3.9987" stroke-linecap="round"/>
<path d="M82.6579 464.054C2.27415 191.801 157.815 -94.0674 430.068 -174.451" stroke="#D223EF" stroke-width="3.9987" stroke-linecap="round"/>
<path d="M417.64 -62.6936C207.119 24.7082 107.312 266.222 194.714 476.742C282.116 687.263 523.629 787.07 734.15 699.668" stroke="#D223EF" stroke-width="3.9987" stroke-linecap="round"/>
<path d="M691.687 265.614C684.25 249.127 673.392 234.41 659.833 222.44C646.274 210.47 630.324 201.521 613.043 196.185C595.761 190.85 577.542 189.25 559.595 191.493" stroke="#D223EF" stroke-width="3.9987" stroke-linecap="round"/>
<path d="M621.898 272.379C609.919 260.19 593.63 253.194 576.542 252.898C559.453 252.602 542.933 259.029 530.537 270.796" stroke="#280941" stroke-width="3.9987" stroke-linecap="round"/>
<circle cx="575.812" cy="318.467" r="16.7945" stroke="#280941" stroke-width="3.9987" stroke-linecap="round"/>
<path d="M1043.31 588.379C894.246 846.573 564.094 935.037 305.9 785.968C47.7065 636.9 -40.7573 306.749 108.311 48.5546" stroke="#280941" stroke-width="3.9987" stroke-linecap="round"/>
<path d="M1050.86 318.467C1050.86 580.827 838.173 793.512 575.813 793.512C313.452 793.512 100.767 580.827 100.767 318.467" stroke="#280941" stroke-width="3.9987" stroke-linecap="round"/>
<path d="M1128.5 637.563C1304.74 332.32 1200.15 -57.9921 894.909 -234.224C589.666 -410.456 199.354 -305.872 23.1219 -0.62942" stroke="#280941" stroke-width="3.9987" stroke-linecap="round"/>
<path d="M1128.43 318.467C1128.43 13.2631 881.016 -234.153 575.812 -234.153" stroke="#9504D9" stroke-width="3.9987" stroke-linecap="round"/>
<path d="M1150.83 318.467C1150.83 636.037 893.383 893.479 575.812 893.479C258.242 893.479 0.799683 636.037 0.799683 318.467" stroke="#280941" stroke-width="3.9987" stroke-linecap="round"/>
<path d="M891.983 131.962C788.98 -42.6545 563.924 -100.708 389.308 2.2957C214.691 105.299 156.638 330.355 259.642 504.971" stroke="#280941" stroke-width="3.9987" stroke-linecap="round"/>
<path d="M841.18 768.329C592.728 914.888 272.508 832.286 125.95 583.834C-20.6085 335.382 61.9927 15.1626 310.445 -131.396" stroke="#7B8085" stroke-opacity="0.5" stroke-width="3.9987" stroke-linecap="round"/>
<path d="M726.343 573.653C585.408 656.788 403.762 609.932 320.627 468.997C237.491 328.062 284.347 146.416 425.282 63.2808" stroke="#9504D9" stroke-width="3.9987" stroke-linecap="round"/>
<path d="M1090.24 666.054C898.268 950.162 512.333 1024.86 228.225 832.89C-55.8834 640.923 -130.578 254.987 61.3892 -29.121" stroke="#9504D9" stroke-width="3.9987" stroke-linecap="round"/>
<path d="M936.769 105.602C1054.41 305.024 988.105 562.05 788.683 679.686" stroke="#9504D9" stroke-width="5.65811" stroke-linecap="round"/>
<path d="M700.998 244.622C741.781 313.76 718.795 402.868 649.657 443.652C580.52 484.435 491.411 461.449 450.627 392.312" stroke="#7B8085" stroke-opacity="0.5" stroke-width="3.9987" stroke-linecap="round"/>
<path d="M743.194 219.731C797.725 312.173 766.991 431.318 674.549 485.849C582.106 540.379 462.961 509.645 408.431 417.203" stroke="#280941" stroke-width="3.9987" stroke-linecap="round"/>
<path d="M694.326 519.377C583.367 584.83 440.356 547.94 374.902 436.981C309.449 326.021 346.339 183.01 457.299 117.557" stroke="#9504D9" stroke-width="3.9987" stroke-linecap="round"/>
<circle cx="575.813" cy="318.467" r="672.581" stroke="#280941" stroke-width="3.9987" stroke-linecap="round"/>
<path d="M1150.83 318.467C1150.83 0.895899 893.383 -256.546 575.812 -256.546C258.242 -256.546 0.799683 0.895899 0.799683 318.467" stroke="#DA50DD" stroke-width="3.9987" stroke-linecap="round"/>
<path d="M575.813 771.119C325.819 771.119 123.16 568.46 123.16 318.467C123.16 68.4736 325.819 -134.186 575.813 -134.186" stroke="#7B8085" stroke-opacity="0.5" stroke-width="3.9987" stroke-linecap="round"/>
<path d="M575.812 1005.44C196.406 1005.44 -111.164 697.873 -111.164 318.467C-111.164 -60.9398 196.406 -368.51 575.812 -368.51" stroke="#9504D9" stroke-width="3.9987" stroke-linecap="round"/>
<path d="M695.037 -126.487C940.779 -60.6409 1086.61 191.951 1020.77 437.692C954.92 683.433 702.329 829.267 456.587 763.42" stroke="#7B8085" stroke-opacity="0.5" stroke-width="3.9987" stroke-linecap="round"/>
<path d="M695.037 -126.487C940.779 -60.6409 1086.61 191.951 1020.77 437.692C954.92 683.433 702.329 829.267 456.587 763.42" stroke="#7B8085" stroke-opacity="0.5" stroke-width="3.9987" stroke-linecap="round"/>
<path d="M1189.21 318.467C1189.21 -20.3049 914.584 -294.934 575.813 -294.934C237.041 -294.934 -37.5878 -20.3049 -37.5878 318.467" stroke="#7B8085" stroke-opacity="0.5" stroke-width="3.9987" stroke-linecap="round"/>
<path d="M1189.21 318.467C1189.21 -20.3049 914.584 -294.934 575.813 -294.934C237.041 -294.934 -37.5878 -20.3049 -37.5878 318.467" stroke="#7B8085" stroke-opacity="0.5" stroke-width="3.9987" stroke-linecap="round"/>
<path d="M183.951 135.574C284.69 -80.6442 541.634 -174.259 757.853 -73.5205C974.072 27.2181 1067.69 284.163 966.948 500.381" stroke="#280941" stroke-width="3.9987" stroke-linecap="round"/>
<path d="M684.377 506.213C787.846 446.476 823.297 314.171 763.559 210.702C703.822 107.233 571.516 71.7818 468.048 131.52" stroke="#280941" stroke-width="3.9987" stroke-linecap="round"/>
<path d="M904.505 318.867C904.505 500.178 757.524 647.16 576.212 647.16C394.901 647.16 247.919 500.178 247.919 318.867" stroke="#D223EF" stroke-width="3.9987" stroke-linecap="round"/>
<path d="M771.791 744.703C536.207 853.011 257.427 749.833 149.12 514.249" stroke="#7B8085" stroke-opacity="0.5" stroke-width="3.9987" stroke-linecap="round"/>
<path d="M137.011 -112.239C375.043 -354.74 764.592 -358.363 1007.09 -120.332" stroke="#7B8085" stroke-opacity="0.5" stroke-width="3.9987" stroke-linecap="round"/>
<path d="M684.708 555.32C553.955 615.433 399.228 558.167 339.116 427.414C279.003 296.662 336.269 141.935 467.022 81.8222" stroke="#7B8085" stroke-opacity="0.5" stroke-width="3.9987" stroke-linecap="round"/>
<path d="M507.334 169.987C589.322 132.294 686.343 168.202 724.036 250.189" stroke="#7B8085" stroke-opacity="0.5" stroke-width="3.9987" stroke-linecap="round"/>
<path d="M595.591 361.144C619 350.382 629.252 322.681 618.49 299.272" stroke="#7B8085" stroke-opacity="0.5" stroke-width="3.9987" stroke-linecap="round"/>
<path d="M575.463 410.437C524.449 410.465 483.071 369.132 483.043 318.117" stroke="#9504D9" stroke-width="3.9987" stroke-linecap="round"/>
<path d="M567.813 345.799C552.588 341.719 543.553 326.07 547.633 310.845C551.712 295.62 567.361 286.585 582.586 290.665" stroke="#DA50DD" stroke-width="3.9987" stroke-linecap="round"/>
<path d="M255.632 172.332C336.432 -4.45368 545.246 -82.266 722.032 -1.46653C898.817 79.3329 976.63 288.147 895.83 464.933" stroke="#9504D9" stroke-width="3.9987" stroke-linecap="round"/>
<path d="M438.496 -156.949C701.062 -232.62 975.258 -81.1131 1050.93 181.453C1126.6 444.018 975.094 718.214 712.528 793.886" stroke="#9504D9" stroke-width="3.9987" stroke-linecap="round"/>
<path d="M555.476 248.127C516.301 259.417 493.695 300.328 504.986 339.503C516.276 378.679 557.187 401.284 596.362 389.994" stroke="#9504D9" stroke-width="3.9987" stroke-linecap="round"/>
<path d="M575.791 870.735C880.93 870.786 1128.34 623.464 1128.39 318.325" stroke="#9504D9" stroke-width="3.9987" stroke-linecap="round"/>
<path d="M575.597 704.847C362.216 704.811 189.266 531.803 189.302 318.422C189.338 105.042 362.346 -67.9084 575.727 -67.8725" stroke="#9504D9" stroke-width="3.9987" stroke-linecap="round"/>
<path d="M730.218 211.765C788.133 296.032 765.835 411.936 680.415 470.645" stroke="#E5E5E5" stroke-width="3.9987" stroke-linecap="round"/>
<path d="M873.231 -272.212C1195.01 -110.025 1322.59 285.881 1158.18 612.07C993.77 938.259 599.635 1071.21 277.855 909.021" stroke="#E5E5E5" stroke-width="3.9987" stroke-linecap="round"/>
<path d="M830.696 142.75C926.16 281.649 889.406 472.699 748.604 569.471C607.801 666.243 416.269 632.092 320.805 493.192" stroke="#E5E5E5" stroke-width="3.9987" stroke-linecap="round"/>
<path d="M1003.67 218.25C948.846 -14.8525 712.847 -158.766 476.552 -103.191" stroke="#E5E5E5" stroke-width="3.9987" stroke-linecap="round"/>
<path d="M710.968 318.467C710.968 290.53 702.311 263.279 686.188 240.465C670.065 217.65 647.268 200.392 620.934 191.065C594.6 181.738 566.023 180.801 539.135 188.382C512.246 195.964 488.368 211.691 470.785 233.4" stroke="#9504D9" stroke-width="3.9987" stroke-linecap="round"/>
</g>
</g>
</g>
<defs>
<filter id="filter0_d_11:3534" x="-59.9805" y="-91" width="1211.61" height="878.914" filterUnits="userSpaceOnUse" color-interpolation-filters="sRGB">
<feFlood flood-opacity="0" result="BackgroundImageFix"/>
<feColorMatrix in="SourceAlpha" type="matrix" values="0 0 0 0 0 0 0 0 0 0 0 0 0 0 0 0 0 0 127 0" result="hardAlpha"/>
<feOffset dx="-39.987" dy="39.987"/>
<feGaussianBlur stdDeviation="9.99675"/>
<feColorMatrix type="matrix" values="0 0 0 0 0 0 0 0 0 0 0 0 0 0 0 0 0 0 0.15 0"/>
<feBlend mode="normal" in2="BackgroundImageFix" result="effect1_dropShadow_11:3534"/>
<feBlend mode="normal" in="SourceGraphic" in2="effect1_dropShadow_11:3534" result="shape"/>
</filter>
<clipPath id="clip0_11:3534">
<rect width="1152" height="700" fill="white"/>
</clipPath>
<clipPath id="clip1_11:3534">
<rect y="-91" width="1151.62" height="818.933" rx="15.9948" fill="white"/>
</clipPath>
</defs>
</svg>
